<svg width="151" height="150" viewBox="0 0 151 150" fill="none" xmlns="http://www.w3.org/2000/svg">
<g clip-path="url(#clip0_1_119)">
<path d="M125.945 78.7087C125.262 77.9296 124.684 77.0796 124.207 76.1821C123.972 100.304 104.23 119.857 79.9921 119.857C55.6093 119.857 35.7719 100.07 35.7719 75.7488C35.7719 51.4279 55.6093 31.6409 79.9921 31.6409C100.968 31.6409 118.579 46.2847 123.091 65.8604L127.096 36.1669L127.186 35.4993C115.783 22.2161 98.8575 13.7828 79.9921 13.7828C65.2739 13.7828 51.7371 18.918 41.0815 27.4822V28.1234V28.691V41.268V41.7673C41.0815 50.1681 36.7163 57.8378 29.8091 62.2204V111.382V112.229C41.1185 127.665 59.3993 137.714 79.9921 137.714C101.631 137.714 120.718 126.619 131.845 109.834V108.926V82.594C129.587 81.8615 127.542 80.5307 125.945 78.7087Z" fill="#64646A"/>
<path d="M79.9921 39.1372C59.753 39.1372 43.2868 55.5611 43.2868 75.7493C43.2868 95.9376 59.7525 112.361 79.9921 112.361C100.232 112.361 116.697 95.9376 116.697 75.7493C116.697 55.5611 100.231 39.1372 79.9921 39.1372Z" fill="#64646A"/>
<path d="M150.214 7.23393C150.214 4.0437 147.622 1.45764 144.423 1.45764C141.524 1.45764 139.071 3.59695 138.684 6.46386L130.223 69.2034C130 70.855 130.503 72.5216 131.602 73.7759C132.702 75.0302 134.291 75.7493 135.962 75.7493H139.359V143.045C139.359 146.081 141.827 148.542 144.87 148.542C147.914 148.542 150.381 146.081 150.381 143.045L150.214 7.23393Z" fill="#64646A"/>
<path d="M33.5666 8.45372C33.5666 6.38338 31.8847 4.70581 29.8091 4.70581C27.7335 4.70581 26.0517 6.38338 26.0517 8.45372V29.1917H20.5407V8.45372C20.5407 6.38338 18.8589 4.70581 16.7833 4.70581C14.7077 4.70581 13.0258 6.38338 13.0258 8.45372V29.1917H7.5149V8.45372C7.5149 6.38338 5.83307 4.70581 3.75745 4.70581C1.68183 4.70581 0 6.38338 0 8.45372V42.2679C0 49.5733 4.71785 55.7969 11.2724 58.0771V143.045C11.2724 146.081 13.7397 148.542 16.7833 148.542C19.8268 148.542 22.2942 146.081 22.2942 143.045V58.0771C28.8487 55.7969 33.5666 49.5733 33.5666 42.2679V8.45372Z" fill="#64646A"/>
</g>
<defs>
<clipPath id="clip0_1_119">
<rect width="150.382" height="150" fill="white"/>
</clipPath>
</defs>
</svg>
